<svg xmlns="http://www.w3.org/2000/svg" viewBox="0 0 500 500"><g id="freepik--background-complete--inject-68"><rect y="382.4" width="500" height="0.25" style="fill:#ebebeb"></rect><rect x="131.47" y="397.82" width="33.12" height="0.25" style="fill:#ebebeb"></rect><rect x="250.15" y="395.11" width="8.69" height="0.25" style="fill:#ebebeb"></rect><rect x="52.46" y="390.89" width="19.19" height="0.25" style="fill:#ebebeb"></rect><rect x="389.7" y="389.21" width="26.08" height="0.25" style="fill:#ebebeb"></rect><rect x="357.35" y="389.21" width="23.44" height="0.25" style="fill:#ebebeb"></rect><rect x="356.23" y="401.21" width="93.68" height="0.25" style="fill:#ebebeb"></rect><path d="M237,337.8H43.91a5.71,5.71,0,0,1-5.7-5.71V60.66A5.71,5.71,0,0,1,43.91,55H237a5.71,5.71,0,0,1,5.71,5.71V332.09A5.71,5.71,0,0,1,237,337.8ZM43.91,55.2a5.46,5.46,0,0,0-5.45,5.46V332.09a5.46,5.46,0,0,0,5.45,5.46H237a5.47,5.47,0,0,0,5.46-5.46V60.66A5.47,5.47,0,0,0,237,55.2Z" style="fill:#ebebeb"></path><path d="M453.31,337.8H260.21a5.72,5.72,0,0,1-5.71-5.71V60.66A5.72,5.72,0,0,1,260.21,55h193.1A5.71,5.71,0,0,1,459,60.66V332.09A5.71,5.71,0,0,1,453.31,337.8ZM260.21,55.2a5.47,5.47,0,0,0-5.46,5.46V332.09a5.47,5.47,0,0,0,5.46,5.46h193.1a5.47,5.47,0,0,0,5.46-5.46V60.66a5.47,5.47,0,0,0-5.46-5.46Z" style="fill:#ebebeb"></path><polygon points="403.44 178.13 146.54 178.13 158.6 120.2 415.51 120.2 403.44 178.13" style="fill:#e0e0e0"></polygon><rect x="63.74" y="319.89" width="372.53" height="11.11" style="fill:#f0f0f0"></rect><rect x="67.39" y="309.29" width="368.88" height="11.11" style="fill:#fafafa"></rect><rect x="71.04" y="298.7" width="365.23" height="11.11" style="fill:#f0f0f0"></rect><rect x="74.69" y="288.1" width="361.58" height="11.11" style="fill:#fafafa"></rect><rect x="78.34" y="277.51" width="357.93" height="11.11" style="fill:#f0f0f0"></rect><rect x="81.99" y="266.91" width="354.28" height="11.11" style="fill:#fafafa"></rect><rect x="85.64" y="256.32" width="350.63" height="11.11" style="fill:#f0f0f0"></rect><rect x="89.28" y="245.73" width="346.98" height="11.11" style="fill:#fafafa"></rect><rect x="92.93" y="235.13" width="343.33" height="11.11" style="fill:#f0f0f0"></rect><rect x="96.58" y="224.54" width="339.68" height="11.11" style="fill:#fafafa"></rect><rect x="100.23" y="213.94" width="336.03" height="11.11" style="fill:#f0f0f0"></rect><rect x="103.88" y="203.35" width="332.38" height="11.11" style="fill:#fafafa"></rect><rect x="107.53" y="192.75" width="328.73" height="11.11" style="fill:#f0f0f0"></rect><rect x="111.18" y="182.16" width="325.08" height="11.11" style="fill:#fafafa"></rect><rect x="114.83" y="171.56" width="321.43" height="11.11" style="fill:#f0f0f0"></rect><rect x="118.48" y="160.97" width="317.78" height="11.11" style="fill:#fafafa"></rect><rect x="122.13" y="150.37" width="314.13" height="11.11" style="fill:#f0f0f0"></rect><rect x="125.78" y="139.78" width="310.48" height="11.11" style="fill:#fafafa"></rect><circle cx="142.69" cy="182.52" r="3.88" style="fill:#e0e0e0"></circle><circle cx="157.69" cy="175.06" r="4.69" style="fill:#e6e6e6"></circle><path d="M131.39,180.88a4.69,4.69,0,1,1-4.69-4.68A4.69,4.69,0,0,1,131.39,180.88Z" style="fill:#e6e6e6"></path><path d="M142.69,150.37a4.69,4.69,0,1,1-4.69-4.69A4.69,4.69,0,0,1,142.69,150.37Z" style="fill:#e6e6e6"></path><circle cx="180.43" cy="150.43" r="3.88" style="fill:#e0e0e0"></circle><circle cx="211.33" cy="161.48" r="3.88" style="fill:#e0e0e0"></circle><circle cx="176.55" cy="170.38" r="3.88" style="fill:#e0e0e0"></circle><path d="M135.27,165.36a3.88,3.88,0,1,1-3.88-3.88A3.88,3.88,0,0,1,135.27,165.36Z" style="fill:#e0e0e0"></path><circle cx="167.3" cy="163.8" r="3.88" style="fill:#ebebeb"></circle><circle cx="126.7" cy="192.75" r="3.88" style="fill:#e0e0e0"></circle><circle cx="148.37" cy="159.92" r="3.88" style="fill:#e0e0e0"></circle><circle cx="186.01" cy="161.48" r="3.88" style="fill:#e0e0e0"></circle><circle cx="195.46" cy="153.5" r="4.69" style="fill:#e6e6e6"></circle><circle cx="225.83" cy="149.17" r="4.69" style="fill:#e6e6e6"></circle><circle cx="190.77" cy="174.26" r="4.69" style="fill:#ebebeb"></circle><path d="M164.35,150.37a4.69,4.69,0,1,1-4.68-4.69A4.68,4.68,0,0,1,164.35,150.37Z" style="fill:#ebebeb"></path><circle cx="237.09" cy="184.13" r="3.88" style="fill:#e0e0e0"></circle><path d="M256.81,187.2a4.69,4.69,0,1,1-4.69-4.68A4.69,4.69,0,0,1,256.81,187.2Z" style="fill:#e6e6e6"></path><path d="M237.12,162.51a4.69,4.69,0,1,1-4.68-4.68A4.69,4.69,0,0,1,237.12,162.51Z" style="fill:#e6e6e6"></path><path d="M278.75,162.57a3.88,3.88,0,1,1-3.88-3.88A3.88,3.88,0,0,1,278.75,162.57Z" style="fill:#e0e0e0"></path><circle cx="305.76" cy="173.62" r="3.88" style="fill:#e0e0e0"></circle><circle cx="295.42" cy="146.55" r="3.88" style="fill:#e0e0e0"></circle><path d="M274.87,182.52a3.88,3.88,0,1,1-3.88-3.88A3.88,3.88,0,0,1,274.87,182.52Z" style="fill:#e0e0e0"></path><circle cx="261.74" cy="175.94" r="3.88" style="fill:#ebebeb"></circle><circle cx="242.8" cy="172.06" r="3.88" style="fill:#e0e0e0"></circle><circle cx="280.45" cy="173.62" r="3.88" style="fill:#e0e0e0"></circle><circle cx="289.9" cy="165.64" r="4.69" style="fill:#e6e6e6"></circle><circle cx="320.26" cy="161.31" r="4.69" style="fill:#e6e6e6"></circle><circle cx="285.21" cy="186.4" r="4.69" style="fill:#ebebeb"></circle><path d="M258.79,162.51a4.69,4.69,0,1,1-4.69-4.68A4.69,4.69,0,0,1,258.79,162.51Z" style="fill:#ebebeb"></path><circle cx="145.84" cy="216.04" r="3.88" style="fill:#e0e0e0"></circle><circle cx="160.87" cy="219.11" r="4.69" style="fill:#e6e6e6"></circle><circle cx="141.18" cy="194.42" r="4.69" style="fill:#e6e6e6"></circle><circle cx="182.13" cy="190.3" r="3.88" style="fill:#e0e0e0"></circle><circle cx="214.51" cy="205.54" r="3.88" style="fill:#e0e0e0"></circle><circle cx="179.73" cy="214.43" r="3.88" style="fill:#e0e0e0"></circle><circle cx="170.48" cy="207.85" r="3.88" style="fill:#ebebeb"></circle><circle cx="151.55" cy="203.97" r="3.88" style="fill:#e0e0e0"></circle><circle cx="189.19" cy="205.54" r="3.88" style="fill:#e0e0e0"></circle><circle cx="198.64" cy="194.42" r="4.69" style="fill:#e6e6e6"></circle><circle cx="229.01" cy="193.22" r="4.69" style="fill:#e6e6e6"></circle><circle cx="193.95" cy="218.31" r="4.69" style="fill:#ebebeb"></circle><circle cx="162.85" cy="194.42" r="4.69" style="fill:#ebebeb"></circle><circle cx="171.18" cy="182.16" r="3.88" style="fill:#e0e0e0"></circle><circle cx="211.91" cy="191.89" r="4.69" style="fill:#e6e6e6"></circle><circle cx="222.26" cy="173.12" r="3.88" style="fill:#e0e0e0"></circle><circle cx="207.23" cy="176.2" r="4.69" style="fill:#e6e6e6"></circle><circle cx="307.84" cy="192.07" r="3.88" style="fill:#e0e0e0"></circle><path d="M371,150.37a3.88,3.88,0,1,1-3.88-3.88A3.88,3.88,0,0,1,371,150.37Z" style="fill:#e0e0e0"></path><circle cx="322.34" cy="179.75" r="4.69" style="fill:#e6e6e6"></circle><circle cx="328.95" cy="193.1" r="4.69" style="fill:#e6e6e6"></circle><circle cx="371.38" cy="193.16" r="3.88" style="fill:#e0e0e0"></circle><path d="M406.16,204.21a3.88,3.88,0,1,1-3.88-3.88A3.88,3.88,0,0,1,406.16,204.21Z" style="fill:#e0e0e0"></path><circle cx="358.26" cy="206.53" r="3.88" style="fill:#ebebeb"></circle><circle cx="408.14" cy="148.91" r="3.88" style="fill:#ebebeb"></circle><circle cx="339.32" cy="202.65" r="3.88" style="fill:#e0e0e0"></circle><circle cx="376.96" cy="204.21" r="3.88" style="fill:#e0e0e0"></circle><circle cx="386.41" cy="196.23" r="4.69" style="fill:#e6e6e6"></circle><circle cx="416.78" cy="191.89" r="4.69" style="fill:#e6e6e6"></circle><circle cx="350.62" cy="193.1" r="4.69" style="fill:#ebebeb"></circle><circle cx="318.77" cy="203.71" r="3.88" style="fill:#e0e0e0"></circle><circle cx="303.74" cy="206.78" r="4.69" style="fill:#e6e6e6"></circle><circle cx="244.16" cy="257.27" r="3.88" style="fill:#e0e0e0"></circle><circle cx="259.16" cy="249.82" r="4.69" style="fill:#e6e6e6"></circle><circle cx="228.17" cy="255.64" r="4.69" style="fill:#e6e6e6"></circle><circle cx="239.47" cy="225.13" r="4.69" style="fill:#e6e6e6"></circle><circle cx="207.45" cy="225.13" r="4.69" style="fill:#e6e6e6"></circle><path d="M285.78,225.19a3.88,3.88,0,1,1-3.88-3.88A3.88,3.88,0,0,1,285.78,225.19Z" style="fill:#e0e0e0"></path><path d="M274.87,213.62a3.88,3.88,0,1,1-3.88-3.88A3.88,3.88,0,0,1,274.87,213.62Z" style="fill:#e0e0e0"></path><circle cx="248.85" cy="214.54" r="3.88" style="fill:#e0e0e0"></circle><circle cx="312.8" cy="236.24" r="3.88" style="fill:#e0e0e0"></circle><path d="M315.6,221.31a3.88,3.88,0,1,1-3.88-3.88A3.88,3.88,0,0,1,315.6,221.31Z" style="fill:#e0e0e0"></path><circle cx="278.02" cy="245.13" r="3.88" style="fill:#e0e0e0"></circle><circle cx="232.86" cy="240.12" r="3.88" style="fill:#e0e0e0"></circle><circle cx="218.36" cy="278.03" r="3.88" style="fill:#e0e0e0"></circle><circle cx="223.65" cy="214.54" r="3.88" style="fill:#e0e0e0"></circle><circle cx="268.77" cy="238.56" r="3.88" style="fill:#ebebeb"></circle><circle cx="228.17" cy="267.51" r="3.88" style="fill:#e0e0e0"></circle><circle cx="249.84" cy="234.68" r="3.88" style="fill:#e0e0e0"></circle><circle cx="242.8" cy="204.23" r="3.88" style="fill:#e0e0e0"></circle><circle cx="287.48" cy="236.24" r="3.88" style="fill:#e0e0e0"></circle><path d="M301.62,228.26a4.69,4.69,0,1,1-4.69-4.69A4.68,4.68,0,0,1,301.62,228.26Z" style="fill:#e6e6e6"></path><circle cx="280.79" cy="202.09" r="4.69" style="fill:#e6e6e6"></circle><path d="M313.38,150.89a4.69,4.69,0,1,1-4.68-4.69A4.68,4.68,0,0,1,313.38,150.89Z" style="fill:#e6e6e6"></path><circle cx="327.3" cy="223.92" r="4.69" style="fill:#e6e6e6"></circle><circle cx="343.19" cy="216.04" r="4.69" style="fill:#e6e6e6"></circle><circle cx="292.24" cy="249.01" r="4.69" style="fill:#ebebeb"></circle><circle cx="261.14" cy="225.13" r="4.69" style="fill:#ebebeb"></circle><circle cx="208.01" cy="259.65" r="4.69" style="fill:#ebebeb"></circle><circle cx="261.74" cy="200.92" r="4.69" style="fill:#ebebeb"></circle><circle cx="338.56" cy="258.89" r="3.88" style="fill:#e0e0e0"></circle><circle cx="353.59" cy="261.96" r="4.69" style="fill:#e6e6e6"></circle><circle cx="333.9" cy="237.27" r="4.69" style="fill:#e6e6e6"></circle><path d="M366.82,224.54a4.69,4.69,0,1,1-4.68-4.69A4.68,4.68,0,0,1,366.82,224.54Z" style="fill:#e6e6e6"></path><circle cx="376.34" cy="237.33" r="3.88" style="fill:#e0e0e0"></circle><path d="M401.6,225.19a3.88,3.88,0,1,1-3.88-3.88A3.88,3.88,0,0,1,401.6,225.19Z" style="fill:#e0e0e0"></path><circle cx="407.23" cy="248.38" r="3.88" style="fill:#e0e0e0"></circle><circle cx="372.46" cy="257.27" r="3.88" style="fill:#e0e0e0"></circle><circle cx="363.21" cy="250.7" r="3.88" style="fill:#ebebeb"></circle><circle cx="344.27" cy="246.82" r="3.88" style="fill:#e0e0e0"></circle><circle cx="381.92" cy="248.38" r="3.88" style="fill:#e0e0e0"></circle><circle cx="391.37" cy="240.4" r="4.69" style="fill:#e6e6e6"></circle><circle cx="412.78" cy="214.54" r="4.69" style="fill:#e6e6e6"></circle><circle cx="426.92" cy="205.54" r="4.69" style="fill:#e6e6e6"></circle><circle cx="407.58" cy="261.79" r="3.88" style="fill:#e0e0e0"></circle><circle cx="422.08" cy="254.58" r="4.69" style="fill:#e6e6e6"></circle><circle cx="429.76" cy="265.84" r="4.69" style="fill:#e6e6e6"></circle><circle cx="426" cy="293.87" r="4.69" style="fill:#e6e6e6"></circle><circle cx="421.73" cy="236.06" r="4.69" style="fill:#e6e6e6"></circle><circle cx="284.1" cy="299.01" r="3.88" style="fill:#e0e0e0"></circle><circle cx="313.99" cy="297.4" r="3.88" style="fill:#e0e0e0"></circle><circle cx="273.72" cy="304.25" r="3.88" style="fill:#e0e0e0"></circle><circle cx="367.73" cy="301.28" r="4.69" style="fill:#e6e6e6"></circle><circle cx="337.49" cy="300.33" r="4.69" style="fill:#e6e6e6"></circle><path d="M334.65,288.1a4.69,4.69,0,1,1-4.69-4.68A4.69,4.69,0,0,1,334.65,288.1Z" style="fill:#e6e6e6"></path><circle cx="427.83" cy="223.8" r="4.69" style="fill:#e6e6e6"></circle><circle cx="386.68" cy="261.15" r="4.69" style="fill:#ebebeb"></circle><circle cx="355.57" cy="237.27" r="4.69" style="fill:#ebebeb"></circle><circle cx="381.92" cy="216.04" r="4.69" style="fill:#ebebeb"></circle><circle cx="338.09" cy="162.98" r="4.69" style="fill:#e6e6e6"></circle><circle cx="353.98" cy="155.1" r="4.69" style="fill:#e6e6e6"></circle><circle cx="344.7" cy="176.32" r="4.69" style="fill:#e6e6e6"></circle><path d="M377.62,163.59a4.69,4.69,0,1,1-4.69-4.69A4.69,4.69,0,0,1,377.62,163.59Z" style="fill:#e6e6e6"></path><circle cx="387.13" cy="176.38" r="3.88" style="fill:#e0e0e0"></circle><path d="M330.91,150.37a3.88,3.88,0,1,1-3.88-3.88A3.88,3.88,0,0,1,330.91,150.37Z" style="fill:#e0e0e0"></path><path d="M412.39,164.24a3.88,3.88,0,1,1-3.88-3.88A3.88,3.88,0,0,1,412.39,164.24Z" style="fill:#e0e0e0"></path><circle cx="427.83" cy="172.08" r="3.88" style="fill:#e0e0e0"></circle><circle cx="402.16" cy="179.45" r="4.69" style="fill:#e6e6e6"></circle><circle cx="423.57" cy="153.59" r="4.69" style="fill:#e6e6e6"></circle><circle cx="279.2" cy="150.89" r="4.69" style="fill:#e6e6e6"></circle><circle cx="248.85" cy="149.17" r="4.69" style="fill:#e6e6e6"></circle><circle cx="366.37" cy="176.32" r="4.69" style="fill:#ebebeb"></circle><circle cx="392.71" cy="155.1" r="4.69" style="fill:#ebebeb"></circle><circle cx="247.31" cy="290.8" r="3.88" style="fill:#e0e0e0"></circle><path d="M267,293.87a4.69,4.69,0,1,1-4.68-4.69A4.68,4.68,0,0,1,267,293.87Z" style="fill:#e6e6e6"></path><path d="M247.34,269.18a4.69,4.69,0,1,1-4.69-4.69A4.69,4.69,0,0,1,247.34,269.18Z" style="fill:#e6e6e6"></path><circle cx="283.6" cy="265.06" r="3.88" style="fill:#e0e0e0"></circle><circle cx="315.98" cy="280.29" r="3.88" style="fill:#e0e0e0"></circle><path d="M285.08,289.18a3.88,3.88,0,1,1-3.88-3.88A3.88,3.88,0,0,1,285.08,289.18Z" style="fill:#e0e0e0"></path><circle cx="271.95" cy="282.61" r="3.88" style="fill:#ebebeb"></circle><circle cx="253.02" cy="278.73" r="3.88" style="fill:#e0e0e0"></circle><circle cx="290.66" cy="280.29" r="3.88" style="fill:#e0e0e0"></circle><circle cx="300.11" cy="269.18" r="4.69" style="fill:#e6e6e6"></circle><circle cx="330.48" cy="267.98" r="4.69" style="fill:#e6e6e6"></circle><circle cx="295.42" cy="293.06" r="4.69" style="fill:#ebebeb"></circle><path d="M269,269.18a4.69,4.69,0,1,1-4.68-4.69A4.68,4.68,0,0,1,269,269.18Z" style="fill:#ebebeb"></path><circle cx="272.65" cy="256.91" r="3.88" style="fill:#e0e0e0"></circle><circle cx="313.38" cy="266.65" r="4.69" style="fill:#e6e6e6"></circle><circle cx="323.73" cy="247.88" r="3.88" style="fill:#e0e0e0"></circle><circle cx="162.35" cy="291.43" r="3.88" style="fill:#e0e0e0"></circle><path d="M182.07,294.5a4.69,4.69,0,1,1-4.69-4.68A4.69,4.69,0,0,1,182.07,294.5Z" style="fill:#e6e6e6"></path><circle cx="231.02" cy="280.93" r="3.88" style="fill:#e0e0e0"></circle><circle cx="227.14" cy="299.22" r="3.88" style="fill:#e0e0e0"></circle><path d="M200.12,289.82a3.88,3.88,0,1,1-3.88-3.88A3.88,3.88,0,0,1,200.12,289.82Z" style="fill:#e0e0e0"></path><circle cx="187" cy="283.24" r="3.88" style="fill:#ebebeb"></circle><circle cx="168.06" cy="279.36" r="3.88" style="fill:#e0e0e0"></circle><circle cx="205.7" cy="280.93" r="3.88" style="fill:#e0e0e0"></circle><circle cx="210.47" cy="293.7" r="4.69" style="fill:#ebebeb"></circle><circle cx="154.26" cy="300.52" r="4.69" style="fill:#e6e6e6"></circle><circle cx="147.51" cy="280.42" r="3.88" style="fill:#e0e0e0"></circle><circle cx="358.88" cy="287.58" r="3.88" style="fill:#e0e0e0"></circle><path d="M378.6,290.65a4.69,4.69,0,1,1-4.69-4.69A4.69,4.69,0,0,1,378.6,290.65Z" style="fill:#e6e6e6"></path><circle cx="420.3" cy="277.07" r="3.88" style="fill:#e0e0e0"></circle><circle cx="395.89" cy="283.7" r="3.88" style="fill:#e0e0e0"></circle><circle cx="381.92" cy="278.03" r="3.88" style="fill:#ebebeb"></circle><circle cx="364.59" cy="275.51" r="3.88" style="fill:#e0e0e0"></circle><circle cx="394.89" cy="269.18" r="3.88" style="fill:#e0e0e0"></circle><circle cx="407" cy="289.84" r="4.69" style="fill:#ebebeb"></circle><circle cx="383.85" cy="297.54" r="3.88" style="fill:#e0e0e0"></circle><circle cx="398.07" cy="301.42" r="4.69" style="fill:#ebebeb"></circle><circle cx="350.79" cy="296.67" r="4.69" style="fill:#e6e6e6"></circle><circle cx="344.04" cy="276.57" r="3.88" style="fill:#e0e0e0"></circle><circle cx="135.47" cy="255.25" r="3.88" style="fill:#e0e0e0"></circle><circle cx="139.35" cy="290.35" r="3.88" style="fill:#e0e0e0"></circle><circle cx="92.93" cy="281.73" r="3.88" style="fill:#e0e0e0"></circle><circle cx="140.84" cy="268.94" r="3.88" style="fill:#e0e0e0"></circle><circle cx="150.5" cy="258.32" r="4.69" style="fill:#e6e6e6"></circle><path d="M132.19,300.52a4.69,4.69,0,1,1-4.68-4.69A4.68,4.68,0,0,1,132.19,300.52Z" style="fill:#e6e6e6"></path><circle cx="94.75" cy="299.22" r="4.69" style="fill:#e6e6e6"></circle><path d="M135.27,279.39a4.69,4.69,0,1,1-4.69-4.69A4.69,4.69,0,0,1,135.27,279.39Z" style="fill:#e6e6e6"></path><circle cx="130.81" cy="233.63" r="4.69" style="fill:#e6e6e6"></circle><circle cx="107.53" cy="236.76" r="4.69" style="fill:#e6e6e6"></circle><circle cx="173.24" cy="233.69" r="3.88" style="fill:#e0e0e0"></circle><circle cx="110.73" cy="280.29" r="3.88" style="fill:#e0e0e0"></circle><circle cx="112.22" cy="268.71" r="3.88" style="fill:#e0e0e0"></circle><circle cx="204.13" cy="244.74" r="3.88" style="fill:#e0e0e0"></circle><circle cx="191.34" cy="270.78" r="3.88" style="fill:#e0e0e0"></circle><circle cx="169.36" cy="253.63" r="3.88" style="fill:#e0e0e0"></circle><circle cx="175.06" cy="267.98" r="3.88" style="fill:#e0e0e0"></circle><circle cx="160.11" cy="247.06" r="3.88" style="fill:#ebebeb"></circle><circle cx="141.18" cy="243.18" r="3.88" style="fill:#e0e0e0"></circle><circle cx="100.23" cy="259.65" r="3.88" style="fill:#e0e0e0"></circle><circle cx="178.82" cy="244.74" r="3.88" style="fill:#e0e0e0"></circle><circle cx="160.87" cy="267.98" r="3.88" style="fill:#e0e0e0"></circle><path d="M193,236.76a4.69,4.69,0,1,1-4.69-4.69A4.69,4.69,0,0,1,193,236.76Z" style="fill:#e6e6e6"></path><path d="M223.32,232.43a4.69,4.69,0,1,1-4.68-4.69A4.69,4.69,0,0,1,223.32,232.43Z" style="fill:#e6e6e6"></path><circle cx="185.31" cy="256.47" r="4.69" style="fill:#ebebeb"></circle><circle cx="152.48" cy="233.63" r="4.69" style="fill:#ebebeb"></circle><circle cx="122.82" cy="214.43" r="4.69" style="fill:#ebebeb"></circle><circle cx="127.38" cy="264.34" r="4.69" style="fill:#e6e6e6"></circle><circle cx="112.22" cy="256.32" r="4.69" style="fill:#e6e6e6"></circle><circle cx="120.63" cy="244.24" r="3.88" style="fill:#e0e0e0"></circle><circle cx="118.13" cy="290.8" r="3.88" style="fill:#e0e0e0"></circle><path d="M108.34,225.19a3.88,3.88,0,1,0,3.88-3.88A3.88,3.88,0,0,0,108.34,225.19Z" style="fill:#e0e0e0"></path><path d="M304,251a4.69,4.69,0,1,0,4.69-4.69A4.69,4.69,0,0,0,304,251Z" style="fill:#e6e6e6"></path><rect x="52.38" y="325.92" width="395.25" height="56.48" style="fill:#e0e0e0"></rect><rect x="57.11" y="307.88" width="385.78" height="2.25" style="fill:#e0e0e0"></rect><rect x="57.11" y="309" width="1.83" height="16.92" style="fill:#e0e0e0"></rect><rect x="64.64" y="309" width="1.83" height="16.92" style="fill:#e0e0e0"></rect><rect x="72.17" y="309" width="1.83" height="16.92" style="fill:#e0e0e0"></rect><rect x="79.7" y="309" width="1.83" height="16.92" style="fill:#e0e0e0"></rect><rect x="87.22" y="309" width="1.83" height="16.92" style="fill:#e0e0e0"></rect><rect x="94.75" y="309" width="1.83" height="16.92" style="fill:#e0e0e0"></rect><rect x="102.28" y="309" width="1.83" height="16.92" style="fill:#e0e0e0"></rect><rect x="109.81" y="309" width="1.83" height="16.92" style="fill:#e0e0e0"></rect><rect x="117.34" y="309" width="1.83" height="16.92" style="fill:#e0e0e0"></rect><rect x="124.87" y="309" width="1.83" height="16.92" style="fill:#e0e0e0"></rect><rect x="132.39" y="309" width="1.83" height="16.92" style="fill:#e0e0e0"></rect><rect x="139.92" y="309" width="1.83" height="16.92" style="fill:#e0e0e0"></rect><rect x="147.45" y="309" width="1.83" height="16.92" style="fill:#e0e0e0"></rect><rect x="154.98" y="309" width="1.83" height="16.92" style="fill:#e0e0e0"></rect><rect x="162.51" y="309" width="1.83" height="16.92" style="fill:#e0e0e0"></rect><rect x="170.04" y="309" width="1.83" height="16.92" style="fill:#e0e0e0"></rect><rect x="177.56" y="309" width="1.83" height="16.92" style="fill:#e0e0e0"></rect><rect x="185.09" y="309" width="1.83" height="16.92" style="fill:#e0e0e0"></rect><rect x="192.62" y="309" width="1.83" height="16.92" style="fill:#e0e0e0"></rect><rect x="200.15" y="309" width="1.83" height="16.92" style="fill:#e0e0e0"></rect><rect x="207.68" y="309" width="1.83" height="16.92" style="fill:#e0e0e0"></rect><rect x="215.21" y="309" width="1.83" height="16.92" style="fill:#e0e0e0"></rect><rect x="222.73" y="309" width="1.83" height="16.92" style="fill:#e0e0e0"></rect><rect x="230.26" y="309" width="1.83" height="16.92" style="fill:#e0e0e0"></rect><rect x="237.79" y="309" width="1.83" height="16.92" style="fill:#e0e0e0"></rect><rect x="245.32" y="309" width="1.83" height="16.92" style="fill:#e0e0e0"></rect><rect x="252.85" y="309" width="1.83" height="16.92" style="fill:#e0e0e0"></rect><rect x="260.38" y="309" width="1.83" height="16.92" style="fill:#e0e0e0"></rect><rect x="267.9" y="309" width="1.83" height="16.92" style="fill:#e0e0e0"></rect><rect x="275.43" y="309" width="1.83" height="16.92" style="fill:#e0e0e0"></rect><rect x="282.96" y="309" width="1.83" height="16.92" style="fill:#e0e0e0"></rect><rect x="290.49" y="309" width="1.83" height="16.92" style="fill:#e0e0e0"></rect><rect x="298.02" y="309" width="1.83" height="16.92" style="fill:#e0e0e0"></rect><rect x="305.55" y="309" width="1.83" height="16.92" style="fill:#e0e0e0"></rect><rect x="313.07" y="309" width="1.83" height="16.92" style="fill:#e0e0e0"></rect><rect x="320.6" y="309" width="1.83" height="16.92" style="fill:#e0e0e0"></rect><rect x="328.13" y="309" width="1.83" height="16.92" style="fill:#e0e0e0"></rect><rect x="335.66" y="309" width="1.83" height="16.92" style="fill:#e0e0e0"></rect><rect x="343.19" y="309" width="1.83" height="16.92" style="fill:#e0e0e0"></rect><rect x="350.72" y="309" width="1.83" height="16.92" style="fill:#e0e0e0"></rect><rect x="358.24" y="309" width="1.83" height="16.92" style="fill:#e0e0e0"></rect><rect x="365.77" y="309" width="1.83" height="16.92" style="fill:#e0e0e0"></rect><rect x="373.3" y="309" width="1.83" height="16.92" style="fill:#e0e0e0"></rect><rect x="380.83" y="309" width="1.83" height="16.92" style="fill:#e0e0e0"></rect><rect x="388.36" y="309" width="1.83" height="16.92" style="fill:#e0e0e0"></rect><rect x="395.89" y="309" width="1.83" height="16.92" style="fill:#e0e0e0"></rect><rect x="403.41" y="309" width="1.83" height="16.92" style="fill:#e0e0e0"></rect><rect x="410.94" y="309" width="1.83" height="16.92" style="fill:#e0e0e0"></rect><rect x="418.47" y="309" width="1.83" height="16.92" style="fill:#e0e0e0"></rect><rect x="426" y="309" width="1.83" height="16.92" style="fill:#e0e0e0"></rect><rect x="433.53" y="309" width="1.83" height="16.92" style="fill:#e0e0e0"></rect><rect x="441.06" y="309" width="1.83" height="16.92" style="fill:#e0e0e0"></rect><rect x="51.08" y="327" width="65.34" height="54.32" style="fill:#f0f0f0"></rect><rect x="117.6" y="327" width="65.34" height="54.32" style="fill:#f0f0f0"></rect><rect x="184.11" y="327" width="65.34" height="54.32" style="fill:#f0f0f0"></rect><rect x="250.63" y="327" width="65.34" height="54.32" style="fill:#f0f0f0"></rect><rect x="317.14" y="327" width="65.34" height="54.32" style="fill:#f0f0f0"></rect><rect x="383.66" y="327" width="65.34" height="54.32" style="fill:#f0f0f0"></rect></g><g id="freepik--Shadow--inject-68"><ellipse id="freepik--path--inject-68" cx="250" cy="416.24" rx="193.89" ry="11.32" style="fill:#f5f5f5"></ellipse></g><g id="freepik--Character--inject-68"><path d="M232,238.82s-23,44.59-33.62,69.93c-5.59,22.32-15.62,52.57-19.48,64a5,5,0,0,0,3,6.3l13.23,4.91a5,5,0,0,0,6.22-2.44c6.08-12.12,23.83-49.09,26.63-72.74C254.69,278,267.64,250,265.22,238.82Z" style="fill:#407BFF"></path><g style="opacity:0.2"><path d="M232,238.82s-23,44.59-33.62,69.93c-5.59,22.32-15.62,52.57-19.48,64a5,5,0,0,0,3,6.3l13.23,4.91a5,5,0,0,0,6.22-2.44c6.08-12.12,23.83-49.09,26.63-72.74C254.69,278,267.64,250,265.22,238.82Z"></path></g><path d="M285.57,167.51c1.72,3,3.3,5.87,4.87,8.85s3.08,6,4.53,9,2.89,6.09,4.23,9.22,2.66,6.3,3.85,9.62l.27.73,0,.24L305,213.9c.57,2.92,1.09,5.87,1.63,8.82,1,5.9,2,11.83,2.75,17.82l-7.19,2c-2.4-5.57-4.49-11.22-6.5-16.9-1-2.85-2-5.69-2.89-8.57s-1.84-5.75-2.67-8.71l.3,1c-1.3-2.82-2.76-5.68-4.22-8.55s-3-5.74-4.55-8.62L277,183.47l-4.6-8.64Z" style="fill:#ff8b7b"></path><path d="M293.86,244l4.16-4.23,101,94.11c2.11,2.07-7.35,11.68-9.45,9.61Z" style="fill:#263238"></path><path d="M293.4,243.15l3.81-3.88a.91.91,0,0,1,1.26,0h0a.9.9,0,0,1,0,1.26l-3.82,3.87a.88.88,0,0,1-1.25,0h0A.88.88,0,0,1,293.4,243.15Z" style="fill:#263238"></path><path d="M301.84,241.84l-1,4.14,10.34,4.07s-.37-11.06-4.44-12.29Z" style="fill:#ff8b7b"></path><polygon points="300.08 251.33 307.34 256.17 311.16 250.05 300.82 245.98 300.08 251.33" style="fill:#ff8b7b"></polygon><path d="M243.75,133.67c-.13.69-.6,1.19-1.05,1.1s-.72-.71-.59-1.41.6-1.19,1-1.11S243.88,133,243.75,133.67Z" style="fill:#263238"></path><path d="M243.21,134.87a25.37,25.37,0,0,1-4.42,5.34c1,1.38,3.21,1.24,3.21,1.24Z" style="fill:#ff5652"></path><path d="M247,130.27a.37.37,0,0,1-.29-.13,3.32,3.32,0,0,0-2.81-1.07.42.42,0,0,1-.48-.33.41.41,0,0,1,.33-.48,4.1,4.1,0,0,1,3.56,1.31.42.42,0,0,1,0,.59A.38.38,0,0,1,247,130.27Z" style="fill:#263238"></path><path d="M261.5,139.36c-.45,6.53-.23,18.37,4.76,22.06,0,0-.93,6.68-12.77,8.17-13,1.63-7-5.68-7-5.68,6.89-2.59,6-7.84,4.18-12.64Z" style="fill:#ff8b7b"></path><path d="M313.86,404.94l9.16-2.81a.75.75,0,0,1,.89.35l3.95,6.95a1.27,1.27,0,0,1-.75,1.86c-3.32,1-8.15,2.24-12.31,3.51-4.86,1.5-6.15,1.44-12.11,1.44-3.6,0-4.6-3.65-3.09-4,6.86-1.5,7.84-.8,12.44-6A4,4,0,0,1,313.86,404.94Z" style="fill:#263238"></path><path d="M269.82,177.06c.92,2.36,1.92,4.66,2.94,6.81,1.75,3.73,3.49,7,4.76,9.24,1.13,2,6.15,10.67,6.15,10.67l17.11-11.95s-9.94-27.21-18-29.68C274.51,159.64,265.68,166.47,269.82,177.06Z" style="fill:#407BFF"></path><path d="M278.27,178.82c-3.18-1.26-3.35,4.44-2.65,10.8.7,1.33,1.34,2.5,1.91,3.49.63,1.15,2.53,4.43,4,7.06C284.06,194.27,284.54,181.31,278.27,178.82Z" style="opacity:0.2"></path><path d="M228.24,191.56c0,3,.07,6.28.24,9.9.43,9.84,1.5,22.12,3.56,37.36h44.29a609.31,609.31,0,0,1,8.66-72,4.41,4.41,0,0,0-4-5.21c-4.27-.35-10.45-.83-15-1.06a177.07,177.07,0,0,0-20,0c-1.21.12-2.42.27-3.57.43a15.63,15.63,0,0,0-13.22,13.3A122.38,122.38,0,0,0,228.24,191.56Z" style="fill:#407BFF"></path><path d="M228.52,181.72c-.15,2.37-.25,5-.27,8,5.78-.76,8.91-4.35,9.86-7C238.88,180.55,233.22,180.26,228.52,181.72Z" style="opacity:0.2"></path><path d="M238.49,177.1c-1.12.32-2,.5-2.87.69s-1.72.32-2.56.45c-1.67.27-3.3.46-4.94.63-3.26.33-6.51.49-9.78.54a84.52,84.52,0,0,1-20-1.89c-.86-.21-1.72-.43-2.6-.7-.44-.13-.88-.26-1.32-.42l-.67-.22-.44-.16-.72-.3a10,10,0,0,1-4.81-4.51,11.67,11.67,0,0,1-1.29-4.82,21,21,0,0,1,.81-6.5,40.84,40.84,0,0,1,1.82-5,68.47,68.47,0,0,1,4.62-8.76,80.15,80.15,0,0,1,5.55-7.93l6.42,3.77a162.82,162.82,0,0,0-5.56,16.72,29.69,29.69,0,0,0-.71,3.84,7.37,7.37,0,0,0,0,2.67c.06.19.18.09,0-.39a3.34,3.34,0,0,0-1.46-1.47l-.18-.09h0l.11,0,.44.11c.29.08.6.14.91.2.61.14,1.25.24,1.9.35a87.58,87.58,0,0,0,16.8.56c2.89-.12,5.8-.38,8.67-.67,1.43-.15,2.85-.33,4.23-.52l2-.31c.62-.11,1.27-.23,1.64-.32Z" style="fill:#ff8b7b"></path><path d="M204.73,142.9l6.39-6.28-9.94-4.43s-3.19,5.53-2,9.51Z" style="fill:#ff8b7b"></path><polygon points="213.86 128.6 205.02 128.68 201.18 132.19 211.12 136.62 213.86 128.6" style="fill:#ff8b7b"></polygon><path d="M243.46,182.7c-7,4.57-32.69,5.84-32.69,5.84l-1.59-24.63s26.58-2.82,37.42-3.45C260.16,159.67,251.91,177.22,243.46,182.7Z" style="fill:#407BFF"></path><path d="M267.25,136.49c-2.11,8.46-2.92,13.51-8.05,17.1-7.72,5.4-17.55-.47-18-9.39-.42-8,3.1-20.49,12.1-22.35A11.89,11.89,0,0,1,267.25,136.49Z" style="fill:#ff8b7b"></path><path d="M244.55,188.45q1.22-6.54,3.75-9.15a9,9,0,0,1,6.71-2.62,7.42,7.42,0,0,1,3.19.58,4.59,4.59,0,0,1,1.82,1.48,6.31,6.31,0,0,1,.93,1.92,10.08,10.08,0,0,1,.31,2.36,25.57,25.57,0,0,1-.44,5.35q-1.17,6.24-3.54,9.14a8.36,8.36,0,0,1-6.85,2.89,7,7,0,0,1-3.88-.92,5.41,5.41,0,0,1-2-2.71,9.83,9.83,0,0,1-.47-3.46A27.72,27.72,0,0,1,244.55,188.45Zm5.48,0q-.83,4.38-.45,6c.25,1.07.8,1.6,1.65,1.6a2.36,2.36,0,0,0,1.59-.68,5.71,5.71,0,0,0,1.31-2.15,28.5,28.5,0,0,0,1.14-4.58q.85-4.57.48-6.14c-.26-1.05-.83-1.58-1.72-1.58a2.66,2.66,0,0,0-2.29,1.61A21.83,21.83,0,0,0,250,188.46Z" style="fill:#fff"></path><path d="M262.13,194.86l5.65-.8a3.07,3.07,0,0,0,.38,1.88,1.37,1.37,0,0,0,1.16.55,2.89,2.89,0,0,0,2.36-1.55,18.49,18.49,0,0,0,1.72-4.84,8.79,8.79,0,0,1-2.36,1.72,5.66,5.66,0,0,1-2.51.55,4.62,4.62,0,0,1-4.11-2.19,7.34,7.34,0,0,1-.8-5.53,10.71,10.71,0,0,1,1.71-4.17,8.62,8.62,0,0,1,3.11-2.83,9,9,0,0,1,4.3-1,7.59,7.59,0,0,1,4.57,1.18,6.24,6.24,0,0,1,2.19,3.76,17.21,17.21,0,0,1-.19,6.79q-1.17,6.21-4,9.1a9.17,9.17,0,0,1-6.82,2.89,8.17,8.17,0,0,1-3.63-.64,4.48,4.48,0,0,1-1.93-1.85A7.52,7.52,0,0,1,262.13,194.86Zm12.09-10.23a4.25,4.25,0,0,0-.27-2.92,2,2,0,0,0-1.79-1.05,2.69,2.69,0,0,0-2,1,5.63,5.63,0,0,0-1.26,2.86,4.41,4.41,0,0,0,.21,2.94,1.8,1.8,0,0,0,1.68,1,2.91,2.91,0,0,0,2.13-1A5.31,5.31,0,0,0,274.22,184.63Z" style="fill:#fff"></path><path d="M253.4,136.16a7.9,7.9,0,0,1-2.26,4.53c-1.64,1.6-3.17.45-3.32-1.62-.13-1.87.57-4.95,2.5-5.76S253.65,134.08,253.4,136.16Z" style="fill:#ff8b7b"></path><path d="M239.44,238.82s6.27,48.74,14.95,74.08c12.79,25,36.72,61.88,41.67,69.44a2.22,2.22,0,0,0,2.5.9l17.66-5.43a2.22,2.22,0,0,0,1.33-3.12c-4.53-8.92-21.29-41.47-37-65.94-6.88-44.22,5-46.52-4.22-69.93Z" style="fill:#407BFF"></path><polygon points="323.74 403.69 315.29 378.09 300.86 382.53 314.64 407 323.74 403.69" style="fill:#263238"></polygon><path d="M174,406.48l9.59-.18a.76.76,0,0,1,.76.58l1.88,7.77a1.28,1.28,0,0,1-1.23,1.59c-3.46,0-8.46-.1-12.8,0-5.09.1-5,0-10.93,0-3.61,0-4.61-3.65-3.1-4,6.87-1.5,7.87-1.28,13.73-5.05A4.15,4.15,0,0,1,174,406.48Z" style="fill:#263238"></path><polygon points="174.18 407.71 182.1 378.09 196.53 382.53 183.1 406.97 174.18 407.71" style="fill:#263238"></polygon><path d="M297.26,233.54l3.9,8-2.28,10,7.63,7.95,5.41-9.14s-.43-7.48-1.85-10.64c-.35-3.47-1.42-12.08-1.42-12.08Z" style="fill:#407BFF"></path><path d="M204.55,151.56l1.29-8.78,6.31-5.65,2.37-9.1-9.93-.22L199.91,131a58.7,58.7,0,0,0-2.44,8.2c-1.67,3.06-6.94,10.08-6.94,10.08Z" style="fill:#407BFF"></path><path d="M264.65,120.37l-6.38-2.18a11.62,11.62,0,0,0-14.71,7.22s-8.76-3.32-5.53-1.16c1.62,1.08,6.35,3.89,10.67,6.43a10,10,0,0,0-2.74,6.89c0,5.57,4.64,8.89,10.08,10.08s11,.3,13.55-6.49l2.27-6.08A11.62,11.62,0,0,0,264.65,120.37Z" style="fill:#263238"></path><path d="M276.5,240.5H232a1.27,1.27,0,0,1-1.27-1.31l.1-2.69a1.26,1.26,0,0,1,1.26-1.23h44.26a1.26,1.26,0,0,1,1.26,1.2l.14,2.7A1.27,1.27,0,0,1,276.5,240.5Z" style="fill:#263238"></path></g></svg>